<svg version="1.1" xmlns="http://www.w3.org/2000/svg" xmlns:xlink="http://www.w3.org/1999/xlink" width="721.66681" height="527" viewBox="0,0,721.66681,527"><g transform="translate(112.69662,85.44735)"><g data-paper-data="{&quot;isPaintingLayer&quot;:true}" fill-rule="nonzero" stroke-linecap="butt" stroke-linejoin="miter" stroke-miterlimit="10" stroke-dasharray="" stroke-dashoffset="0" style="mix-blend-mode: normal"><path d="M193.66015,121.11825l-76.2096,252.2126l-33.50389,-10.12367l76.2096,-252.2126z" data-paper-data="{&quot;index&quot;:null}" fill="#789aab" stroke="#000000" stroke-width="4"/><path d="M193.17424,122.72635l-75.27685,249.12565l-33.50389,-10.12367l75.27684,-249.12565z" data-paper-data="{&quot;index&quot;:null}" fill="#789aab" stroke="none" stroke-width="0"/><path d="M191.05308,129.74614l-4.27044,15.13861l-36.7539,-0.37367l7.52044,-24.88861z" data-paper-data="{&quot;index&quot;:null}" fill="#58717e" stroke="none" stroke-width="0"/><path d="M157.77741,210.17337c-1.43773,4.75809 -6.46043,7.44978 -11.21852,6.01206c-4.75809,-1.43773 -7.44978,-6.46043 -6.01206,-11.21852c1.43773,-4.75809 6.46043,-7.44978 11.21852,-6.01206c4.75809,1.43773 7.44978,6.46043 6.01206,11.21852z" data-paper-data="{&quot;index&quot;:null}" fill="#2d81ab" stroke="#000000" stroke-width="2"/><path d="M167.32259,178.58399c-1.43773,4.75809 -6.46043,7.44978 -11.21852,6.01206c-4.75809,-1.43773 -7.44978,-6.46043 -6.01206,-11.21852c1.43773,-4.75809 6.46042,-7.44978 11.21851,-6.01206c4.75809,1.43773 7.44978,6.46043 6.01206,11.21852z" data-paper-data="{&quot;index&quot;:null}" fill="#2d81ab" stroke="#000000" stroke-width="2"/><path d="M393.83334,374.50015l-0.33334,-209.14815h213.4702c0.18035,53.80368 -0.61592,209.14815 -0.61592,209.14815z" fill="#2d81ab" stroke="#000000" stroke-width="4"/><path d="M393.5,374.50015v-209.14815h213.4702c0.18035,53.80368 -0.61592,209.14815 -0.61592,209.14815z" fill="#2d81ab" stroke="none" stroke-width="0"/><path d="M289.5,374.50016l22,-144.14815h159.52095v144.14815z" fill="#2d81ab" stroke="#000000" stroke-width="4"/><path d="M38.30338,-8.9474c0,-14.63554 18.80404,-26.5 42,-26.5c23.19596,0 42,11.86446 42,26.5c0,14.63555 -18.80404,26.5 -42,26.5c-23.19596,0 -42,-11.86445 -42,-26.5z" fill="#2d81ab" stroke="#000000" stroke-width="4"/><path d="M44.63672,117.05263c0,-23.19596 18.80404,-42 42,-42c23.19596,0 42,18.80404 42,42c0,23.19596 -18.80404,42 -42,42c-23.19596,0 -42,-18.80404 -42,-42z" fill="#2d81ab" stroke="#000000" stroke-width="4"/><path d="M4.30338,130.05255v-25h285v25z" fill="#2d81ab" stroke="#000000" stroke-width="4"/><path d="M-112.69662,441.55265v-527h701v527z" fill="none" stroke="none" stroke-width="0"/><path d="M4.30338,130.05255v-25h285v25z" fill="#2d81ab" stroke="none" stroke-width="NaN"/><path d="M-84.69662,373.05266v-383.77781h207v383.77781z" fill="#2d81ab" stroke="#000000" stroke-width="4"/><path d="M-84.69662,373.05266v-383.77781h207v383.77781z" fill="#2d81ab" stroke="none" stroke-width="0"/><path d="M44.63672,117.05263c0,-23.19596 18.80404,-42 42,-42c23.19596,0 42,18.80404 42,42c0,23.19596 -18.80404,42 -42,42c-23.19596,0 -42,-18.80404 -42,-42z" fill="#2d81ab" stroke="none" stroke-width="0"/><path d="M38.30338,-8.9474c0,-14.63554 18.80404,-26.5 42,-26.5c23.19596,0 42,11.86446 42,26.5c0,14.63555 -18.80404,26.5 -42,26.5c-23.19596,0 -42,-11.86445 -42,-26.5z" fill="#2d81ab" stroke="none" stroke-width="0"/><path d="M289.5,374.50016l22,-144.14815h159.52095v144.14815z" fill="#2d81ab" stroke="none" stroke-width="0"/><path d="M187.94896,146.29105c0.28476,-0.10018 0.59954,-0.06637 0.85653,0.092l0.37512,-1.69124c0,0 0.02136,-0.0771 0.03204,-0.11564c0.00666,-0.04297 0.01831,-0.08501 0.03471,-0.12528l0.01602,-0.05782c0.03976,-0.05988 0.08335,-0.11712 0.13049,-0.17138c0.03925,-0.04323 0.08162,-0.08352 0.12678,-0.12053l0.17229,-0.09754c0.05532,-0.02843 0.11366,-0.05056 0.17392,-0.06596l0.17288,-0.02474l0.20238,0.05606l0.06746,0.01869l0.11564,0.03204c0.04297,0.00666 0.08501,0.01831 0.12528,0.03471l3.4463,1.68106l1.44695,-5.22329l-2.9608,-2.45971v0c-0.08359,-0.07926 -0.15638,-0.1692 -0.21644,-0.26749l0.01602,-0.05782l-0.067,-0.1327l-1.03028,-3.58517c-0.16491,-0.3614 -0.10026,-0.78616 0.16471,-1.08213c0.26497,-0.29597 0.68001,-0.40704 1.05739,-0.28296c0.37738,0.12407 0.64553,0.45976 0.68317,0.85523l0.95513,3.29456l1.98277,1.60768l0.06407,-0.23129c-1.29136,-1.53099 -1.25132,-3.78107 0.09368,-5.26514c1.345,-1.48408 3.5803,-1.74461 5.23056,-0.60965c1.65026,1.13496 2.2067,3.31552 1.30207,5.10246c-0.90463,1.78694 -2.99146,2.62934 -4.88311,1.97121l-0.1148,0.41439l5.60267,5.05935c0.40589,0.37142 0.43551,1.00094 0.0663,1.40883c-0.25308,0.27884 -0.64133,0.39187 -1.00453,0.29244c-0.15067,-0.03949 -0.29002,-0.11363 -0.40697,-0.21651l-4.86081,-4.36613l-1.48166,5.34857l-0.48957,4.87628l-0.01602,0.05782l-0.64383,3.97229l1.04381,1.51359c0.15182,0.21799 0.21067,0.48743 0.16355,0.74887c-0.04712,0.26144 -0.19632,0.49339 -0.41469,0.64466c-0.24446,0.16943 -0.55165,0.22124 -0.83816,0.14137c-0.22529,-0.06193 -0.42179,-0.20081 -0.55537,-0.39251l-1.15633,-1.66928c-0.20589,-0.21991 -0.30167,-0.5209 -0.26073,-0.81934l0.70777,-4.39039l0.42635,-4.19856l-2.73094,-1.37912l-0.68512,3.10997v0c-0.00895,0.08682 -0.03241,0.17151 -0.06941,0.25056c-0.02158,0.05553 -0.05331,0.10656 -0.09357,0.15048c-0.0048,0.02971 -0.01286,0.05879 -0.02403,0.08673c-0.23639,0.23931 -0.57725,0.34374 -0.90712,0.27792l-0.04819,-0.01335c-0.35495,-0.09935 -0.62647,-0.3859 -0.70657,-0.74569l-0.7978,-1.83976c-0.14094,-0.2381 -0.17694,-0.52394 -0.09943,-0.78954c0.07751,-0.2656 0.26159,-0.48722 0.50847,-0.61213z" data-paper-data="{&quot;index&quot;:null}" fill="#ff9400" stroke="none" stroke-width="1"/><path d="M187.94896,146.29105c0.28476,-0.10018 0.59954,-0.06637 0.85653,0.092l0.37512,-1.69124c0,0 0.02136,-0.0771 0.03204,-0.11564c0.00666,-0.04297 0.01831,-0.08501 0.03471,-0.12528l0.01602,-0.05782c0.03976,-0.05988 0.08335,-0.11712 0.13049,-0.17138c0.03925,-0.04323 0.08162,-0.08352 0.12678,-0.12053l0.17229,-0.09754c0.05532,-0.02843 0.11366,-0.05056 0.17392,-0.06596l0.17288,-0.02474l0.20238,0.05606l0.06746,0.01869l0.11564,0.03204c0.04297,0.00666 0.08501,0.01831 0.12528,0.03471l3.4463,1.68106l1.44695,-5.22329l-2.9608,-2.45971v0c-0.08359,-0.07926 -0.15638,-0.1692 -0.21644,-0.26749l0.01602,-0.05782l-0.067,-0.1327l-1.03028,-3.58517c-0.16491,-0.3614 -0.10026,-0.78616 0.16471,-1.08213c0.26497,-0.29597 0.68001,-0.40704 1.05739,-0.28296c0.37738,0.12407 0.64553,0.45976 0.68317,0.85523l0.95513,3.29456l1.98277,1.60768l0.06407,-0.23129c-1.29136,-1.53099 -1.25132,-3.78107 0.09368,-5.26514c1.345,-1.48408 3.5803,-1.74461 5.23056,-0.60965c1.65026,1.13496 2.2067,3.31552 1.30207,5.10246c-0.90463,1.78694 -2.99146,2.62934 -4.88311,1.97121l-0.1148,0.41439l5.60267,5.05935c0.40589,0.37142 0.43551,1.00094 0.0663,1.40883c-0.25308,0.27884 -0.64133,0.39187 -1.00453,0.29244c-0.15067,-0.03949 -0.29002,-0.11363 -0.40697,-0.21651l-4.86081,-4.36613l-1.48166,5.34857l-0.48957,4.87628l-0.01602,0.05782l-0.64383,3.97229l1.04381,1.51359c0.15182,0.21799 0.21067,0.48743 0.16355,0.74887c-0.04712,0.26144 -0.19632,0.49339 -0.41469,0.64466c-0.24446,0.16943 -0.55165,0.22124 -0.83816,0.14137c-0.22529,-0.06193 -0.42179,-0.20081 -0.55537,-0.39251l-1.15633,-1.66928c-0.20589,-0.21991 -0.30167,-0.5209 -0.26073,-0.81934l0.70777,-4.39039l0.42635,-4.19856l-2.73094,-1.37912l-0.68512,3.10997v0c-0.00895,0.08682 -0.03241,0.17151 -0.06941,0.25056c-0.02158,0.05553 -0.05331,0.10656 -0.09357,0.15048c-0.0048,0.02971 -0.01286,0.05879 -0.02403,0.08673c-0.23639,0.23931 -0.57725,0.34374 -0.90712,0.27792l-0.04819,-0.01335c-0.35495,-0.09935 -0.62647,-0.3859 -0.70657,-0.74569l-0.7978,-1.83976c-0.14094,-0.2381 -0.17694,-0.52394 -0.09943,-0.78954c0.07751,-0.2656 0.26159,-0.48722 0.50847,-0.61213z" data-paper-data="{&quot;index&quot;:null}" fill="#45ff00" stroke="none" stroke-width="1"/></g></g></svg>