<svg version="1.1" xmlns="http://www.w3.org/2000/svg" xmlns:xlink="http://www.w3.org/1999/xlink" width="701" height="527" viewBox="0,0,701,527"><g transform="translate(112.69662,85.44739)"><g data-paper-data="{&quot;isPaintingLayer&quot;:true}" fill-rule="nonzero" stroke-linecap="butt" stroke-linejoin="miter" stroke-miterlimit="10" stroke-dasharray="" stroke-dashoffset="0" style="mix-blend-mode: normal"><path d="M510.52137,196.60507h-274.57614l-5,-35h279.57614z" data-paper-data="{&quot;index&quot;:null}" fill="#789aab" stroke="#000000" stroke-width="4"/><path d="M512.8034,196.60507h-276.85816l-5,-35h281.85817z" data-paper-data="{&quot;index&quot;:null}" fill="#789aab" stroke="#000000" stroke-width="0"/><path d="M512.28205,196.60507h-276.1915l-1.33333,-10h277.52484z" data-paper-data="{&quot;index&quot;:null}" fill="#617c8a" stroke="none" stroke-width="0"/><path d="M305.80339,200.43842h-30v-43h30z" data-paper-data="{&quot;index&quot;:null}" fill="#2d81ab" stroke="#000000" stroke-width="2"/><path d="M404.80339,200.43842h-30v-43h30z" data-paper-data="{&quot;index&quot;:null}" fill="#2d81ab" stroke="#000000" stroke-width="2"/><path d="M375.8034,347.60508h-428.37952v-35h428.37952z" data-paper-data="{&quot;index&quot;:null}" fill="#789aab" stroke="#000000" stroke-width="4"/><path d="M375.8034,347.60508h-428.37952v-35h428.37952z" data-paper-data="{&quot;index&quot;:null}" fill="#789aab" stroke="#000000" stroke-width="0"/><path d="M373.8034,347.60508h-428.37952v-10h428.37952z" data-paper-data="{&quot;index&quot;:null}" fill="#617c8a" stroke="none" stroke-width="0"/><path d="M-112.69662,441.55262v-527h701v527z" fill="none" stroke="none" stroke-width="0"/><path d="M-16.19661,351.43844h-55c0,0 -10,-14.64536 -10,-22.204c0,-6.66089 10,-20.796 10,-20.796h55z" data-paper-data="{&quot;index&quot;:null}" fill="#2d81ab" stroke="#000000" stroke-width="2"/><path d="M68.80339,351.43844h-30v-43h30z" data-paper-data="{&quot;index&quot;:null}" fill="#2d81ab" stroke="#000000" stroke-width="2"/><path d="M128.80339,351.43844h-30v-43h30z" data-paper-data="{&quot;index&quot;:null}" fill="#2d81ab" stroke="#000000" stroke-width="2"/><path d="M186.80339,351.43844h-30v-43h30z" data-paper-data="{&quot;index&quot;:null}" fill="#2d81ab" stroke="#000000" stroke-width="2"/><path d="M296.80339,351.43844h-30v-43h30z" data-paper-data="{&quot;index&quot;:null}" fill="#2d81ab" stroke="#000000" stroke-width="2"/><path d="M354.80339,351.43844h-30v-194h30z" data-paper-data="{&quot;index&quot;:null}" fill="#2d81ab" stroke="#000000" stroke-width="2"/><path d="M92.7135,330.05262c0,4.97056 -4.02944,9 -9,9c-4.97056,0 -9,-4.02944 -9,-9c0,-4.97056 4.02944,-9 9,-9c4.97056,0 9,4.02944 9,9z" data-paper-data="{&quot;index&quot;:null}" fill="#2d81ab" stroke="#000000" stroke-width="2"/><path d="M-50.2865,329.55262c0,4.97056 -4.02944,9 -9,9c-4.97056,0 -9,-4.02944 -9,-9c0,-4.97056 4.02944,-9 9,-9c4.97056,0 9,4.02944 9,9z" data-paper-data="{&quot;index&quot;:null}" fill="#f4ff8c" stroke="#000000" stroke-width="2"/><path d="M377.84751,326.62501c0.24768,-0.17257 0.56006,-0.22402 0.85,-0.14l-0.09,-1.73c0,0 0,-0.08 0,-0.12c-0.00505,-0.04319 -0.00505,-0.08681 0,-0.13v-0.06c0.02233,-0.06832 0.04906,-0.13512 0.08,-0.2c0.02628,-0.05214 0.05636,-0.10228 0.09,-0.15l0.14,-0.14c0.04572,-0.04217 0.09604,-0.07907 0.15,-0.11l0.16,-0.07h0.21h0.07h0.12c0.04319,-0.00505 0.08681,-0.00505 0.13,0l3.77,0.7v-5.42l-3.51,-1.58v0c-0.10172,-0.05407 -0.19587,-0.12131 -0.28,-0.2v-0.06l-0.1,-0.11l-1.95,-3.18c-0.25541,-0.30426 -0.3065,-0.73086 -0.13016,-1.08683c0.17634,-0.35597 0.54666,-0.57381 0.94347,-0.55498c0.39681,0.01882 0.74484,0.27074 0.88669,0.64181l1.8,2.92l2.34,1.02v-0.24c-1.65321,-1.13068 -2.21532,-3.30978 -1.31533,-5.09906c0.89999,-1.78929 2.9846,-2.63711 4.87797,-1.9839c1.89336,0.65321 3.01174,2.60607 2.61699,4.56966c-0.39475,1.96359 -2.18094,3.33253 -4.17964,3.20329v0.43l6.75,3.38c0.49031,0.24958 0.68692,0.84835 0.44,1.34c-0.16945,0.33628 -0.51344,0.54886 -0.89,0.55c-0.15574,0.00217 -0.30983,-0.03208 -0.45,-0.1l-5.85,-2.91v5.55l0.83,4.83v0.06l0.44,4l1.41,1.18c0.20451,0.16955 0.33315,0.4135 0.35754,0.67803c0.02439,0.26453 -0.05748,0.52789 -0.22754,0.73197c-0.19036,0.22854 -0.47257,0.36048 -0.77,0.36c-0.23365,0.00046 -0.46009,-0.08092 -0.64,-0.23l-1.56,-1.3c-0.25712,-0.15696 -0.42978,-0.42146 -0.47,-0.72l-0.49,-4.42l-0.71,-4.16l-3,-0.6l0.17,3.18v0c0.01455,0.08606 0.01455,0.17394 0,0.26c-0.00597,0.05928 -0.02293,0.11693 -0.05,0.17c0.0033,0.02991 0.0033,0.06009 0,0.09c-0.16392,0.29373 -0.46453,0.48537 -0.8,0.51h-0.05c-0.36859,-0.00098 -0.70676,-0.20465 -0.88,-0.53l-1.26,-1.56c-0.19939,-0.19183 -0.31039,-0.45769 -0.3066,-0.73434c0.00379,-0.27665 0.12203,-0.53937 0.3266,-0.72566z" data-paper-data="{&quot;index&quot;:null}" fill="#ff9400" stroke="none" stroke-width="1"/><path d="M377.84751,326.62501c0.24768,-0.17257 0.56006,-0.22402 0.85,-0.14l-0.09,-1.73c0,0 0,-0.08 0,-0.12c-0.00505,-0.04319 -0.00505,-0.08681 0,-0.13v-0.06c0.02233,-0.06832 0.04906,-0.13512 0.08,-0.2c0.02628,-0.05214 0.05636,-0.10228 0.09,-0.15l0.14,-0.14c0.04572,-0.04217 0.09604,-0.07907 0.15,-0.11l0.16,-0.07h0.21h0.07h0.12c0.04319,-0.00505 0.08681,-0.00505 0.13,0l3.77,0.7v-5.42l-3.51,-1.58v0c-0.10172,-0.05407 -0.19587,-0.12131 -0.28,-0.2v-0.06l-0.1,-0.11l-1.95,-3.18c-0.25541,-0.30426 -0.3065,-0.73086 -0.13016,-1.08683c0.17634,-0.35597 0.54666,-0.57381 0.94347,-0.55498c0.39681,0.01882 0.74484,0.27074 0.88669,0.64181l1.8,2.92l2.34,1.02v-0.24c-1.65321,-1.13068 -2.21532,-3.30978 -1.31533,-5.09906c0.89999,-1.78929 2.9846,-2.63711 4.87797,-1.9839c1.89336,0.65321 3.01174,2.60607 2.61699,4.56966c-0.39475,1.96359 -2.18094,3.33253 -4.17964,3.20329v0.43l6.75,3.38c0.49031,0.24958 0.68692,0.84835 0.44,1.34c-0.16945,0.33628 -0.51344,0.54886 -0.89,0.55c-0.15574,0.00217 -0.30983,-0.03208 -0.45,-0.1l-5.85,-2.91v5.55l0.83,4.83v0.06l0.44,4l1.41,1.18c0.20451,0.16955 0.33315,0.4135 0.35754,0.67803c0.02439,0.26453 -0.05748,0.52789 -0.22754,0.73197c-0.19036,0.22854 -0.47257,0.36048 -0.77,0.36c-0.23365,0.00046 -0.46009,-0.08092 -0.64,-0.23l-1.56,-1.3c-0.25712,-0.15696 -0.42978,-0.42146 -0.47,-0.72l-0.49,-4.42l-0.71,-4.16l-3,-0.6l0.17,3.18v0c0.01455,0.08606 0.01455,0.17394 0,0.26c-0.00597,0.05928 -0.02293,0.11693 -0.05,0.17c0.0033,0.02991 0.0033,0.06009 0,0.09c-0.16392,0.29373 -0.46453,0.48537 -0.8,0.51h-0.05c-0.36859,-0.00098 -0.70676,-0.20465 -0.88,-0.53l-1.26,-1.56c-0.19939,-0.19183 -0.31039,-0.45769 -0.3066,-0.73434c0.00379,-0.27665 0.12203,-0.53937 0.3266,-0.72566z" data-paper-data="{&quot;index&quot;:null}" fill="#45ff00" stroke="none" stroke-width="1"/></g></g></svg>