<svg version="1.1" xmlns="http://www.w3.org/2000/svg" xmlns:xlink="http://www.w3.org/1999/xlink" width="25.8" height="25.8" viewBox="0,0,25.8,25.8"><defs><radialGradient cx="240" cy="180" r="12.9" gradientUnits="userSpaceOnUse" id="color-1"><stop offset="0" stop-color="#000000"/><stop offset="1" stop-color="#000000" stop-opacity="0"/></radialGradient><radialGradient cx="240" cy="180" r="11" gradientUnits="userSpaceOnUse" id="color-2"><stop offset="0" stop-color="#000000"/><stop offset="1" stop-color="#000000" stop-opacity="0"/></radialGradient></defs><g transform="translate(-227.1,-167.1)"><g data-paper-data="{&quot;isPaintingLayer&quot;:true}" fill-rule="nonzero" stroke="none" stroke-width="0" stroke-linecap="butt" stroke-linejoin="miter" stroke-miterlimit="10" stroke-dasharray="" stroke-dashoffset="0" style="mix-blend-mode: normal"><path d="M227.1,180c0,-7.12447 5.77553,-12.9 12.9,-12.9c7.12447,0 12.9,5.77553 12.9,12.9c0,7.12447 -5.77553,12.9 -12.9,12.9c-7.12447,0 -12.9,-5.77553 -12.9,-12.9z" fill="url(#color-1)"/><path d="M229,180c0,-6.07513 4.92487,-11 11,-11c6.07513,0 11,4.92487 11,11c0,6.07513 -4.92487,11 -11,11c-6.07513,0 -11,-4.92487 -11,-11z" fill="url(#color-2)"/></g></g></svg>